<svg xmlns="http://www.w3.org/2000/svg" width="212" height="40" viewBox="0 0 211.62 40" fill="none">
  <g transform="translate(-13.09 -13.37) scale(0.061363)">
    <path d="M 362.3,306.6 L 389.2,325.6 L 403.8,338.0 L 408.3,340.2 L 421.8,351.5 L 502.6,412.1 L 507.1,414.3 L 520.6,425.6 L 525.1,427.8 L 528.4,431.2 L 535.2,434.5 L 541.9,435.7 L 543.0,436.8 L 559.9,436.8 L 561.0,435.7 L 567.7,434.5 L 574.5,431.2 L 619.4,397.5 L 627.2,393.0 L 639.6,382.9 L 644.1,380.7 L 651.9,373.9 L 656.4,371.7 L 659.8,368.3 L 664.3,366.1 L 667.6,362.7 L 672.1,360.4 L 675.5,357.1 L 680.0,354.8 L 683.4,351.5 L 687.8,349.2 L 691.2,345.9 L 695.7,343.6 L 699.1,340.2 L 706.9,335.7 L 714.8,329.0 L 726.0,322.3 L 739.5,312.2 L 739.5,315.5 L 738.4,316.7 L 738.4,340.2 L 739.5,341.4 L 739.5,345.9 L 740.6,347.0 L 740.6,350.3 L 741.7,351.5 L 744.0,360.4 L 750.7,373.9 L 756.3,381.8 L 775.4,399.7 L 794.5,409.8 L 796.7,409.8 L 801.2,412.1 L 805.7,412.1 L 806.8,413.2 L 812.5,413.2 L 813.6,414.3 L 822.6,414.3 L 792.2,434.5 L 788.9,435.7 L 773.2,446.9 L 769.8,448.0 L 750.7,461.5 L 747.3,462.6 L 724.9,478.3 L 721.5,479.4 L 709.2,488.4 L 705.8,489.6 L 690.1,500.8 L 686.7,501.9 L 658.7,521.0 L 655.3,522.1 L 642.9,531.1 L 636.2,534.5 L 619.4,552.4 L 613.7,563.6 L 612.6,570.4 L 611.5,571.5 L 611.5,578.2 L 610.4,579.4 L 610.4,775.8 L 609.3,777.0 L 609.3,780.3 L 608.1,781.4 L 607.0,787.1 L 602.5,796.0 L 595.8,805.0 L 586.8,812.9 L 572.2,820.7 L 568.8,820.7 L 563.2,823.0 L 556.5,823.0 L 555.4,824.1 L 547.5,824.1 L 546.4,823.0 L 538.5,823.0 L 537.4,821.9 L 534.0,821.9 L 530.7,819.6 L 528.4,819.6 L 519.4,815.1 L 509.3,806.1 L 508.2,806.1 L 508.2,805.0 L 500.4,796.0 L 495.9,787.1 L 495.9,784.8 L 493.6,780.3 L 493.6,777.0 L 492.5,775.8 L 492.5,578.2 L 491.4,577.1 L 491.4,571.5 L 490.3,570.4 L 489.1,563.6 L 481.3,549.1 L 466.7,534.5 L 453.2,525.5 L 449.8,524.4 L 434.1,513.1 L 430.8,512.0 L 421.8,505.3 L 418.4,504.1 L 406.1,495.2 L 402.7,494.0 L 390.3,485.1 L 387.0,483.9 L 371.3,472.7 L 367.9,471.6 L 348.8,458.1 L 342.1,454.7 L 338.7,451.4 L 335.3,450.3 L 310.6,433.4 L 307.3,432.3 L 298.3,425.6 L 294.9,424.4 L 285.9,417.7 L 279.2,414.3 L 289.3,414.3 L 290.4,413.2 L 296.0,413.2 L 297.2,412.1 L 305.0,411.0 L 324.1,402.0 L 333.1,394.1 L 334.2,394.1 L 348.8,378.4 L 357.8,362.7 L 357.8,360.4 L 361.1,353.7 L 361.1,350.3 L 363.4,344.7 L 363.4,340.2 L 364.5,339.1 L 364.5,318.9 L 363.4,317.8 Z" fill="var(--yh-alias-label-primary)"/>
    <circle cx="278.4" cy="328.6" r="65.1" fill="#266CDE"/>
    <circle cx="824.5" cy="328.6" r="65.1" fill="#266CDE"/>
    </g>
  <path transform="translate(53.50 31.00)" d="M8.611428571428572 0.0V-8.422857142857143L9.334285714285715 -6.474285714285715L-0.12571428571428572 -22.0H3.2371428571428575L11.188571428571429 -8.894285714285715H9.365714285714287L17.34857142857143 -22.0H20.46L11.031428571428572 -6.474285714285715L11.722857142857144 -8.422857142857143V0.0ZM47.86571428571429 0.0V-22.0H51.00857142857143V0.0ZM32.08857142857143 0.0V-22.0H35.23142857142857V0.0ZM34.917142857142856 -9.805714285714286V-12.540000000000001H48.14857142857143V-9.805714285714286ZM67.50857142857143 0.0V-3.5200000000000005L67.35142857142858 -4.180000000000001V-10.182857142857143Q67.35142857142858 -12.100000000000001 66.2357142857143 -13.152857142857144Q65.12 -14.205714285714286 62.88857142857143 -14.205714285714286Q61.41142857142857 -14.205714285714286 59.99714285714286 -13.71857142857143Q58.58285714285715 -13.231428571428573 57.60857142857143 -12.414285714285715L56.35142857142858 -14.677142857142858Q57.64000000000001 -15.714285714285715 59.447142857142865 -16.264285714285716Q61.25428571428572 -16.814285714285717 63.23428571428572 -16.814285714285717Q66.66000000000001 -16.814285714285717 68.51428571428573 -15.14857142857143Q70.36857142857144 -13.482857142857144 70.36857142857144 -10.057142857142857V0.0ZM62.040000000000006 0.18857142857142858Q60.18571428571429 0.18857142857142858 58.78714285714286 -0.44000000000000006Q57.38857142857143 -1.0685714285714287 56.63428571428572 -2.1842857142857146Q55.88 -3.3000000000000003 55.88 -4.714285714285714Q55.88 -6.065714285714286 56.52428571428572 -7.165714285714286Q57.16857142857143 -8.265714285714287 58.63000000000001 -8.925714285714287Q60.09142857142858 -9.585714285714287 62.57428571428572 -9.585714285714287H67.85428571428572V-7.417142857142857H62.7Q60.43714285714286 -7.417142857142857 59.651428571428575 -6.662857142857144Q58.86571428571429 -5.908571428571429 58.86571428571429 -4.840000000000001Q58.86571428571429 -3.6142857142857143 59.84 -2.875714285714286Q60.81428571428572 -2.1371428571428575 62.542857142857144 -2.1371428571428575Q64.24000000000001 -2.1371428571428575 65.51285714285714 -2.8914285714285715Q66.78571428571429 -3.645714285714286 67.35142857142858 -5.091428571428572L67.94857142857143 -3.0171428571428573Q67.35142857142858 -1.54 65.84285714285716 -0.6757142857142857Q64.33428571428573 0.18857142857142858 62.040000000000006 0.18857142857142858ZM75.96285714285715 0.0V-16.65714285714286H78.85428571428572V-12.131428571428572L78.57142857142857 -13.262857142857143Q79.26285714285714 -14.991428571428573 80.89714285714285 -15.902857142857144Q82.53142857142858 -16.814285714285717 84.92 -16.814285714285717V-13.891428571428573Q84.73142857142858 -13.922857142857143 84.55857142857144 -13.922857142857143Q84.38571428571429 -13.922857142857143 84.22857142857143 -13.922857142857143Q81.80857142857144 -13.922857142857143 80.39428571428573 -12.477142857142859Q78.98 -11.031428571428572 78.98 -8.297142857142857V0.0ZM88.84857142857143 0.0V-16.65714285714286H91.74000000000001V-12.162857142857144L91.26857142857143 -13.357142857142858Q92.08571428571429 -14.991428571428573 93.78285714285715 -15.902857142857144Q95.48 -16.814285714285717 97.74285714285715 -16.814285714285717Q99.78571428571429 -16.814285714285717 101.34142857142858 -16.028571428571432Q102.89714285714287 -15.242857142857144 103.77714285714286 -13.64Q104.65714285714286 -12.037142857142857 104.65714285714286 -9.585714285714287V0.0H101.64V-9.24Q101.64 -11.66 100.46142857142857 -12.885714285714286Q99.28285714285715 -14.111428571428572 97.14571428571429 -14.111428571428572Q95.54285714285714 -14.111428571428572 94.34857142857143 -13.482857142857144Q93.15428571428572 -12.854285714285716 92.51 -11.62857142857143Q91.86571428571429 -10.402857142857144 91.86571428571429 -8.58V0.0ZM117.66857142857144 0.18857142857142858Q114.99714285714286 0.18857142857142858 112.97 -0.9114285714285715Q110.94285714285715 -2.0114285714285716 109.82714285714286 -3.928571428571429Q108.71142857142857 -5.845714285714286 108.71142857142857 -8.32857142857143Q108.71142857142857 -10.811428571428571 109.7957142857143 -12.728571428571428Q110.88000000000001 -14.645714285714286 112.78142857142858 -15.73Q114.68285714285715 -16.814285714285717 117.07142857142858 -16.814285714285717Q119.49142857142857 -16.814285714285717 121.34571428571428 -15.745714285714287Q123.2 -14.677142857142858 124.25285714285715 -12.744285714285715Q125.30571428571429 -10.811428571428571 125.30571428571429 -8.234285714285715Q125.30571428571429 -8.045714285714286 125.29 -7.794285714285715Q125.27428571428572 -7.542857142857144 125.24285714285715 -7.322857142857143H111.06857142857143V-9.491428571428573H123.67142857142858L122.44571428571429 -8.737142857142858Q122.47714285714287 -10.34 121.78571428571429 -11.597142857142858Q121.09428571428572 -12.854285714285716 119.88428571428571 -13.561428571428571Q118.67428571428572 -14.268571428571429 117.07142857142858 -14.268571428571429Q115.5 -14.268571428571429 114.27428571428572 -13.561428571428571Q113.04857142857144 -12.854285714285716 112.35714285714286 -11.581428571428573Q111.66571428571429 -10.30857142857143 111.66571428571429 -8.674285714285714V-8.171428571428573Q111.66571428571429 -6.505714285714286 112.43571428571428 -5.201428571428572Q113.2057142857143 -3.8971428571428572 114.58857142857144 -3.1742857142857144Q115.97142857142858 -2.4514285714285715 117.76285714285714 -2.4514285714285715Q119.24000000000001 -2.4514285714285715 120.45000000000002 -2.9542857142857146Q121.66000000000001 -3.4571428571428573 122.57142857142858 -4.4628571428571435L124.23714285714286 -2.5142857142857142Q123.1057142857143 -1.1942857142857144 121.42428571428573 -0.5028571428571429Q119.74285714285715 0.18857142857142858 117.66857142857144 0.18857142857142858ZM134.26285714285714 0.18857142857142858Q132.18857142857144 0.18857142857142858 130.31857142857143 -0.37714285714285717Q128.44857142857143 -0.942857142857143 127.38000000000001 -1.7600000000000002L128.63714285714286 -4.148571428571429Q129.7057142857143 -3.425714285714286 131.27714285714285 -2.9228571428571435Q132.84857142857143 -2.4200000000000004 134.48285714285714 -2.4200000000000004Q136.58857142857144 -2.4200000000000004 137.5157142857143 -3.0171428571428573Q138.44285714285715 -3.6142857142857143 138.44285714285715 -4.682857142857143Q138.44285714285715 -5.468571428571429 137.87714285714287 -5.908571428571429Q137.3114285714286 -6.348571428571429 136.38428571428574 -6.568571428571429Q135.45714285714286 -6.788571428571429 134.3257142857143 -6.961428571428572Q133.1942857142857 -7.134285714285714 132.06285714285713 -7.401428571428571Q130.93142857142857 -7.668571428571429 129.98857142857145 -8.155714285714286Q129.0457142857143 -8.642857142857144 128.48000000000002 -9.507142857142858Q127.91428571428573 -10.371428571428572 127.91428571428573 -11.817142857142859Q127.91428571428573 -13.325714285714287 128.76285714285714 -14.457142857142859Q129.61142857142858 -15.588571428571429 131.16714285714286 -16.201428571428572Q132.72285714285715 -16.814285714285717 134.86 -16.814285714285717Q136.49428571428572 -16.814285714285717 138.1757142857143 -16.42142857142857Q139.85714285714286 -16.02857142857143 140.9257142857143 -15.305714285714286L139.63714285714286 -12.917142857142858Q138.5057142857143 -13.671428571428573 137.28000000000003 -13.954285714285716Q136.05428571428573 -14.237142857142858 134.82857142857145 -14.237142857142858Q132.84857142857143 -14.237142857142858 131.87428571428572 -13.592857142857145Q130.9 -12.94857142857143 130.9 -11.942857142857143Q130.9 -11.094285714285714 131.48142857142858 -10.638571428571428Q132.06285714285715 -10.182857142857143 132.99 -9.931428571428572Q133.91714285714286 -9.680000000000001 135.04857142857145 -9.507142857142858Q136.18 -9.334285714285715 137.31142857142856 -9.067142857142859Q138.44285714285715 -8.8 139.37 -8.32857142857143Q140.29714285714286 -7.857142857142858 140.87857142857143 -7.008571428571429Q141.46 -6.16 141.46 -4.745714285714286Q141.46 -3.2371428571428575 140.58 -2.1371428571428575Q139.70000000000002 -1.0371428571428571 138.09714285714287 -0.42428571428571427Q136.49428571428572 0.18857142857142858 134.26285714285714 0.18857142857142858ZM150.00857142857146 0.18857142857142858Q147.93428571428575 0.18857142857142858 146.06428571428575 -0.37714285714285717Q144.19428571428574 -0.942857142857143 143.1257142857143 -1.7600000000000002L144.38285714285718 -4.148571428571429Q145.4514285714286 -3.425714285714286 147.02285714285716 -2.9228571428571435Q148.59428571428575 -2.4200000000000004 150.22857142857146 -2.4200000000000004Q152.33428571428573 -2.4200000000000004 153.2614285714286 -3.0171428571428573Q154.18857142857146 -3.6142857142857143 154.18857142857146 -4.682857142857143Q154.18857142857146 -5.468571428571429 153.62285714285719 -5.908571428571429Q153.05714285714288 -6.348571428571429 152.13000000000002 -6.568571428571429Q151.20285714285717 -6.788571428571429 150.0714285714286 -6.961428571428572Q148.94000000000003 -7.134285714285714 147.80857142857144 -7.401428571428571Q146.67714285714288 -7.668571428571429 145.73428571428573 -8.155714285714286Q144.79142857142858 -8.642857142857144 144.2257142857143 -9.507142857142858Q143.66000000000003 -10.371428571428572 143.66000000000003 -11.817142857142859Q143.66000000000003 -13.325714285714287 144.50857142857146 -14.457142857142859Q145.3571428571429 -15.588571428571429 146.91285714285718 -16.201428571428572Q148.46857142857147 -16.814285714285717 150.6057142857143 -16.814285714285717Q152.24000000000004 -16.814285714285717 153.9214285714286 -16.42142857142857Q155.60285714285718 -16.02857142857143 156.6714285714286 -15.305714285714286L155.38285714285718 -12.917142857142858Q154.2514285714286 -13.671428571428573 153.0257142857143 -13.954285714285716Q151.8 -14.237142857142858 150.57428571428574 -14.237142857142858Q148.59428571428575 -14.237142857142858 147.62000000000003 -13.592857142857145Q146.64571428571432 -12.94857142857143 146.64571428571432 -11.942857142857143Q146.64571428571432 -11.094285714285714 147.2271428571429 -10.638571428571428Q147.80857142857144 -10.182857142857143 148.73571428571432 -9.931428571428572Q149.66285714285718 -9.680000000000001 150.79428571428576 -9.507142857142858Q151.92571428571432 -9.334285714285715 153.05714285714288 -9.067142857142859Q154.18857142857146 -8.8 155.11571428571432 -8.32857142857143Q156.04285714285717 -7.857142857142858 156.62428571428575 -7.008571428571429Q157.20571428571432 -6.16 157.20571428571432 -4.745714285714286Q157.20571428571432 -3.2371428571428575 156.3257142857143 -2.1371428571428575Q155.4457142857143 -1.0371428571428571 153.84285714285716 -0.42428571428571427Q152.24000000000004 0.18857142857142858 150.00857142857146 0.18857142857142858Z" fill="var(--yh-alias-label-primary)"/>
</svg>
